<svg xmlns="http://www.w3.org/2000/svg" width="307" height="307" fill="none" viewBox="0 0 307 307">
  <path fill="#FDFDFD" d="M307 153.5a6.5 6.5 0 1 1-13 0 6.5 6.5 0 0 1 13 0Zm0 147a6.5 6.5 0 1 1-13 0 6.5 6.5 0 0 1 13 0Zm0-196a6.5 6.5 0 1 1-13 0 6.5 6.5 0 0 1 13 0Zm0 147a6.5 6.5 0 1 1-13 0 6.5 6.5 0 0 1 13 0Zm0-196a6.5 6.5 0 1 1-13 0 6.5 6.5 0 0 1 13 0Zm0 147a6.5 6.5 0 1 1-13 0 6.5 6.5 0 0 1 13 0Zm0-196a6.5 6.5 0 1 1-13 0 6.5 6.5 0 0 1 13 0Zm-49 147a6.5 6.5 0 1 1-13 0 6.5 6.5 0 0 1 13 0Zm0 147a6.5 6.5 0 1 1-13 0 6.5 6.5 0 0 1 13 0Zm0-196a6.5 6.5 0 1 1-13 0 6.5 6.5 0 0 1 13 0Zm0 147a6.5 6.5 0 1 1-13 0 6.5 6.5 0 0 1 13 0Zm0-196a6.5 6.5 0 1 1-13 0 6.5 6.5 0 0 1 13 0Zm0 147a6.5 6.5 0 1 1-13 0 6.5 6.5 0 0 1 13 0Zm0-196a6.5 6.5 0 1 1-13 0 6.5 6.5 0 0 1 13 0Zm-49 147a6.5 6.5 0 1 1-13 0 6.5 6.5 0 0 1 13 0Zm0 147a6.5 6.5 0 1 1-13 0 6.5 6.5 0 0 1 13 0Zm0-196a6.5 6.5 0 1 1-13 0 6.5 6.5 0 0 1 13 0Zm0 147a6.5 6.5 0 1 1-13 0 6.5 6.5 0 0 1 13 0Zm0-196a6.5 6.5 0 1 1-13 0 6.5 6.5 0 0 1 13 0Zm0 147a6.5 6.5 0 1 1-13 0 6.5 6.5 0 0 1 13 0Zm0-196a6.5 6.5 0 1 1-13 0 6.5 6.5 0 0 1 13 0Zm-49 147a6.5 6.5 0 1 1-13 0 6.5 6.5 0 0 1 13 0Zm0 147a6.5 6.5 0 1 1-13 0 6.5 6.5 0 0 1 13 0Zm0-196a6.5 6.5 0 1 1-13 0 6.5 6.5 0 0 1 13 0Zm0 147a6.5 6.5 0 1 1-13 0 6.5 6.5 0 0 1 13 0Zm0-196a6.5 6.5 0 1 1-13 0 6.5 6.5 0 0 1 13 0Zm0 147a6.5 6.5 0 1 1-13 0 6.5 6.5 0 0 1 13 0Zm0-196a6.5 6.5 0 1 1-13 0 6.5 6.5 0 0 1 13 0Zm-49 147a6.5 6.5 0 1 1-13 0 6.5 6.5 0 0 1 13 0Zm0 147a6.5 6.5 0 1 1-13 0 6.5 6.5 0 0 1 13 0Zm0-196a6.5 6.5 0 1 1-13 0 6.5 6.5 0 0 1 13 0Zm0 147a6.5 6.5 0 1 1-13 0 6.5 6.5 0 0 1 13 0Zm0-196a6.5 6.5 0 1 1-13 0 6.5 6.5 0 0 1 13 0Zm0 147a6.5 6.5 0 1 1-13 0 6.5 6.5 0 0 1 13 0Zm0-196a6.5 6.5 0 1 1-13 0 6.5 6.5 0 0 1 13 0Zm-49 147a6.5 6.5 0 1 1-13 0 6.5 6.5 0 0 1 13 0Zm0 147a6.5 6.5 0 1 1-13 0 6.5 6.5 0 0 1 13 0Zm0-196a6.5 6.5 0 1 1-13 0 6.5 6.5 0 0 1 13 0Zm0 147a6.5 6.5 0 1 1-13 0 6.5 6.5 0 0 1 13 0Zm0-196a6.5 6.5 0 1 1-13 0 6.5 6.5 0 0 1 13 0Zm0 147a6.5 6.5 0 1 1-13 0 6.5 6.5 0 0 1 13 0Zm0-196a6.5 6.5 0 1 1-13 0 6.5 6.5 0 0 1 13 0Zm-49 147a6.5 6.5 0 1 1-13 0 6.5 6.5 0 0 1 13 0Zm0 147a6.5 6.5 0 1 1-13 0 6.5 6.5 0 0 1 13 0Zm0-196a6.5 6.5 0 1 1-13 0 6.5 6.5 0 0 1 13 0Zm0 147a6.5 6.5 0 1 1-13 0 6.5 6.5 0 0 1 13 0Zm0-196a6.5 6.5 0 1 1-13 0 6.5 6.5 0 0 1 13 0Zm0 147a6.5 6.5 0 1 1-13 0 6.5 6.5 0 0 1 13 0Zm0-196a6.5 6.5 0 1 1-13 0 6.5 6.5 0 0 1 13 0Z"/>
</svg>
