<svg xmlns="http://www.w3.org/2000/svg" width="40" height="40" fill="none" viewBox="0 0 40 40">
  <path fill="#838BA4" d="M20 3.333A16.667 16.667 0 0 0 3.333 20c0 7.367 4.784 13.617 11.4 15.833.834.134 1.1-.383 1.1-.833v-2.817c-4.616 1-5.6-2.233-5.6-2.233-.766-1.933-1.85-2.45-1.85-2.45-1.516-1.033.117-1 .117-1 1.667.117 2.55 1.717 2.55 1.717C12.5 30.75 14.95 30 15.9 29.6c.15-1.083.583-1.817 1.05-2.233-3.7-.417-7.583-1.85-7.583-8.2 0-1.85.633-3.334 1.716-4.517-.166-.417-.75-2.15.167-4.4 0 0 1.4-.45 4.583 1.7 1.317-.367 2.75-.55 4.167-.55 1.417 0 2.85.183 4.167.55 3.183-2.15 4.583-1.7 4.583-1.7.917 2.25.333 3.983.167 4.4 1.083 1.183 1.716 2.667 1.716 4.517 0 6.366-3.9 7.766-7.616 8.183.6.517 1.15 1.533 1.15 3.083V35c0 .45.266.983 1.116.833C31.9 33.6 36.667 27.367 36.667 20A16.666 16.666 0 0 0 20 3.333Z"/>
</svg>
