<svg xmlns="http://www.w3.org/2000/svg" width="27" height="218" fill="none" viewBox="0 0 27 218">
  <path fill="#838BA4" d="M13.25 120a.75.75 0 0 0 1.5 0h-1.5ZM14.53.47a.75.75 0 0 0-1.06 0L8.697 5.243a.75.75 0 0 0 1.06 1.06L14 2.061l4.243 4.242a.75.75 0 1 0 1.06-1.06L14.53.47ZM14.75 120V1h-1.5v119h1.5Zm-4.187 90.528c-.497.053-.883.277-1.16.671-.276.39-.414.898-.414 1.523 0 .439.066.816.198 1.13.133.315.313.555.54.722.228.167.487.252.779.256.242 0 .452-.055.63-.165.178-.114.33-.267.455-.46.121-.194.223-.408.307-.642.083-.235.153-.472.21-.711l.273-1.091c.102-.439.24-.861.415-1.267a4.43 4.43 0 0 1 .659-1.096c.265-.326.585-.584.96-.773.375-.189.814-.284 1.318-.284.682 0 1.282.174 1.801.523.515.348.919.852 1.21 1.511.288.655.432 1.449.432 2.381 0 .905-.14 1.691-.42 2.358-.28.663-.69 1.181-1.228 1.556-.537.372-1.193.572-1.965.603v-2.074c.405-.03.742-.155 1.01-.375.27-.22.47-.506.603-.858a3.39 3.39 0 0 0 .199-1.193c0-.459-.068-.86-.204-1.205a1.956 1.956 0 0 0-.58-.818 1.4 1.4 0 0 0-.875-.301c-.303.004-.553.093-.75.267-.2.174-.367.418-.5.733a7.02 7.02 0 0 0-.364 1.091l-.34 1.324c-.247.958-.62 1.716-1.12 2.272-.504.553-1.172.83-2.006.83-.685 0-1.286-.186-1.8-.557-.516-.375-.916-.884-1.2-1.528-.288-.644-.431-1.373-.431-2.188 0-.826.143-1.549.431-2.17.284-.625.68-1.116 1.188-1.472a3.03 3.03 0 0 1 1.739-.551v2.028Zm.727-14.027v2.125a2.651 2.651 0 0 0-.926.336 2.484 2.484 0 0 0-1.12 1.437 3.235 3.235 0 0 0-.147.994c0 .633.159 1.194.477 1.682.314.489.776.871 1.386 1.148.606.277 1.347.415 2.222.415.89 0 1.64-.138 2.25-.415.606-.28 1.064-.663 1.375-1.148.307-.488.46-1.047.46-1.676 0-.348-.045-.674-.136-.977a2.67 2.67 0 0 0-.415-.824 2.534 2.534 0 0 0-1.58-.972l.012-2.125c.553.08 1.072.252 1.556.517a4.62 4.62 0 0 1 1.285 1.029c.367.424.655.92.863 1.489a5.55 5.55 0 0 1 .307 1.892c0 1.022-.237 1.935-.71 2.738-.474.803-1.157 1.436-2.051 1.898-.894.462-1.966.693-3.216.693-1.254 0-2.326-.233-3.216-.699-.894-.466-1.578-1.1-2.051-1.903-.474-.803-.71-1.712-.71-2.727 0-.648.09-1.25.272-1.807a4.632 4.632 0 0 1 .801-1.489 4.269 4.269 0 0 1 1.284-1.074 4.797 4.797 0 0 1 1.728-.557Zm7.71-1.93H7.364v-4.364c0-.894.155-1.644.466-2.25.31-.609.746-1.07 1.306-1.38.557-.315 1.207-.472 1.95-.472.745 0 1.393.159 1.942.477.546.315.968.779 1.268 1.392.295.614.443 1.368.443 2.262v3.108h-1.75v-2.824c0-.523-.072-.951-.216-1.284a1.525 1.525 0 0 0-.642-.739c-.284-.163-.633-.244-1.046-.244-.413 0-.765.081-1.057.244a1.555 1.555 0 0 0-.67.744c-.155.334-.233.764-.233 1.29v1.932H19v2.108Zm-5.273-6.011L19 185.679v2.352l-5.273 2.83v-2.301Zm-.545-14.793c1.254 0 2.327.235 3.221.705.89.466 1.572 1.102 2.046 1.909.473.803.71 1.714.71 2.733 0 1.019-.237 1.931-.71 2.738-.477.803-1.161 1.44-2.051 1.909-.894.466-1.966.699-3.216.699-1.254 0-2.326-.233-3.216-.699-.894-.469-1.578-1.106-2.051-1.909-.474-.807-.71-1.719-.71-2.738s.236-1.93.71-2.733c.473-.807 1.157-1.443 2.05-1.909.891-.47 1.963-.705 3.217-.705Zm0 2.119c-.883 0-1.627.139-2.233.415-.61.273-1.07.652-1.38 1.137-.315.484-.472 1.043-.472 1.676 0 .632.157 1.191.471 1.676.31.485.771.865 1.38 1.142.607.273 1.351.409 2.234.409.882 0 1.629-.136 2.239-.409.605-.277 1.066-.657 1.38-1.142.31-.485.466-1.044.466-1.676 0-.633-.155-1.192-.466-1.676-.314-.485-.774-.864-1.38-1.137-.61-.276-1.357-.415-2.24-.415ZM19 171.774H7.364v-2.108h9.869v-5.125H19v7.233Zm0-9.062H7.364v-2.108h9.869v-5.125H19v7.233ZM7.364 142.345v-2.108h7.602c.833 0 1.566.197 2.199.591.632.39 1.127.94 1.483 1.648.352.708.528 1.536.528 2.483 0 .951-.176 1.78-.528 2.488-.356.709-.85 1.258-1.483 1.648-.633.39-1.366.585-2.2.585h-7.6v-2.108h7.426c.485 0 .916-.106 1.295-.318.379-.216.676-.519.892-.909.212-.39.319-.852.319-1.386 0-.534-.107-.996-.319-1.387a2.27 2.27 0 0 0-.892-.909 2.607 2.607 0 0 0-1.295-.318H7.364ZM19 137.946H7.364v-4.364c0-.894.166-1.644.5-2.25a3.331 3.331 0 0 1 1.375-1.38c.58-.315 1.238-.472 1.977-.472.746 0 1.409.157 1.989.472a3.36 3.36 0 0 1 1.369 1.392c.33.613.494 1.369.494 2.267v2.892h-1.733v-2.608c0-.523-.09-.951-.273-1.284a1.718 1.718 0 0 0-.75-.739 2.372 2.372 0 0 0-1.096-.244c-.413 0-.777.081-1.091.244a1.66 1.66 0 0 0-.733.744c-.178.334-.267.764-.267 1.29v1.932H19v2.108Z"/>
</svg>
