<svg xmlns="http://www.w3.org/2000/svg" width="27" height="218" fill="none" viewBox="0 0 27 218">
  <path fill="#E2E5F1" d="M13.75 127a.748.748 0 0 0-.75-.75.749.749 0 0 0-.75.75h1.5Zm-1.28 90.53a.752.752 0 0 0 1.06 0l4.773-4.773a.752.752 0 0 0 .02-1.079.758.758 0 0 0-.544-.22.754.754 0 0 0-.536.239L13 215.939l-4.243-4.242a.75.75 0 0 0-1.06 1.06l4.773 4.773ZM12.25 127v90h1.5v-90h-1.5ZM15.58 7.625a1.66 1.66 0 0 0 1.25-.75c.3-.44.448-.992.448-1.66 0-.476-.075-.89-.227-1.238a1.906 1.906 0 0 0-.613-.812 1.449 1.449 0 0 0-.88-.284c-.278 0-.516.064-.717.193-.2.132-.37.305-.506.517a3.91 3.91 0 0 0-.335.693c-.083.233-.155.47-.216.71l-.295 1.137c-.09.37-.214.752-.37 1.142-.155.39-.36.752-.613 1.085a2.94 2.94 0 0 1-.944.807c-.374.208-.823.312-1.346.312-.66 0-1.244-.17-1.756-.511-.51-.337-.915-.828-1.21-1.472-.295-.64-.443-1.414-.443-2.324 0-.87.138-1.625.415-2.26.276-.637.668-1.135 1.176-1.495.511-.36 1.117-.559 1.818-.597V2.58c-.42.034-.77.17-1.05.409a2.21 2.21 0 0 0-.62.926c-.137.4-.204.821-.199 1.244 0 .496.077.938.233 1.324.16.39.378.697.66.92.283.224.614.336.993.336.345 0 .627-.099.846-.296.22-.193.402-.456.546-.79.144-.33.27-.702.38-1.119l.376-1.375c.253-.932.627-1.67 1.12-2.216.491-.541 1.143-.812 1.953-.812.671 0 1.256.181 1.756.545.5.364.89.856 1.165 1.477.28.622.42 1.322.42 2.103 0 .788-.138 1.483-.414 2.085-.277.606-.657 1.083-1.142 1.432-.483.35-1.063.54-1.66.545l.001-1.693Zm-.728 13.615v-1.773a2.71 2.71 0 0 0 1.733-1.062c.201-.27.352-.57.455-.904.102-.33.153-.68.153-1.05 0-.671-.168-1.271-.506-1.802-.337-.526-.83-.943-1.483-1.25-.65-.303-1.446-.454-2.386-.454-.947 0-1.746.151-2.397.454-.652.307-1.144.726-1.478 1.256-.333.53-.5 1.127-.5 1.79 0 .367.05.715.148 1.045.102.333.252.635.45.904a2.72 2.72 0 0 0 1.71 1.074l-.007 1.772a4.75 4.75 0 0 1-1.58-.551 4.357 4.357 0 0 1-1.238-1.04 4.701 4.701 0 0 1-.8-1.443 5.338 5.338 0 0 1-.285-1.773c0-1.007.24-1.905.716-2.693.48-.788 1.168-1.409 2.062-1.864.894-.45 1.96-.676 3.2-.676 1.242 0 2.308.228 3.198.682.894.455 1.58 1.076 2.057 1.864.48.788.721 1.684.721 2.687a5.427 5.427 0 0 1-.267 1.727 4.559 4.559 0 0 1-.772 1.45c-.34.43-.761.791-1.239 1.062a4.78 4.78 0 0 1-1.665.568ZM7 23.34h11.636v4.149c0 .901-.155 1.65-.465 2.244-.31.598-.74 1.045-1.29 1.34-.546.296-1.177.444-1.892.444-.713 0-1.34-.15-1.88-.449-.539-.295-.958-.742-1.257-1.34-.299-.595-.449-1.344-.449-2.245v-3.142h1.512v2.983c0 .568.081 1.03.244 1.386.163.36.4.623.71.79.31.167.684.25 1.12.25.44 0 .82-.085 1.142-.256a1.65 1.65 0 0 0 .738-.79c.175-.355.262-.823.262-1.403v-2.204H7.001V23.34Zm5.25 5.745L7 31.96v-2l5.25-2.818v1.943Zm.568 14.676c-1.242 0-2.31-.227-3.204-.681-.89-.455-1.576-1.078-2.057-1.87-.477-.788-.716-1.684-.716-2.687 0-1.008.24-1.908.716-2.7.48-.787 1.168-1.408 2.062-1.863.894-.454 1.96-.682 3.2-.682 1.242 0 2.308.228 3.198.682.894.455 1.58 1.076 2.057 1.864.48.791.721 1.691.721 2.699 0 1.003-.24 1.9-.72 2.687-.478.792-1.164 1.415-2.058 1.87-.89.454-1.956.681-3.199.681Zm0-1.738c.947 0 1.745-.154 2.392-.46.652-.303 1.144-.72 1.477-1.25.34-.535.516-1.157.506-1.79 0-.67-.168-1.27-.506-1.796-.333-.526-.825-.943-1.477-1.25-.648-.303-1.445-.454-2.392-.454-.947 0-1.746.151-2.397.454-.648.307-1.14.724-1.478 1.25a3.285 3.285 0 0 0-.5 1.796c0 .666.167 1.263.5 1.79.337.53.83.947 1.478 1.25.651.306 1.45.46 2.397.46ZM7 45.95h11.636v1.756H8.511v5.273h-1.51V45.95Zm0 9.031h11.636v1.756H8.511v5.273h-1.51v-7.029Zm0 17.033v-3.767h11.636v3.886c0 1.14-.233 2.12-.698 2.938a4.606 4.606 0 0 1-1.995 1.88c-.864.44-1.9.66-3.108.66-1.212 0-2.254-.222-3.125-.665a4.665 4.665 0 0 1-2.01-1.91c-.467-.831-.7-1.84-.7-3.022Zm1.534-2.011v1.915c0 .886.167 1.623.5 2.21a3.15 3.15 0 0 0 1.46 1.318c.64.292 1.42.438 2.341.438.913 0 1.688-.146 2.324-.438.636-.288 1.12-.718 1.45-1.29.33-.572.493-1.282.493-2.13v-2.023H8.534Zm4.284 19.899c-1.242 0-2.31-.227-3.204-.682-.89-.454-1.576-1.078-2.057-1.87-.477-.787-.716-1.683-.716-2.687 0-1.007.24-1.907.716-2.698.48-.788 1.168-1.41 2.062-1.864.894-.455 1.96-.682 3.2-.682 1.242 0 2.308.227 3.198.682.894.454 1.58 1.076 2.057 1.864.48.791.721 1.69.721 2.698 0 1.004-.24 1.9-.72 2.688-.478.791-1.164 1.415-2.058 1.87-.89.454-1.956.681-3.199.681Zm0-1.739c.947 0 1.745-.153 2.392-.46.652-.303 1.144-.72 1.477-1.25.34-.535.516-1.157.506-1.79 0-.67-.168-1.269-.506-1.795-.333-.527-.825-.943-1.477-1.25-.648-.303-1.445-.455-2.392-.455-.947 0-1.746.152-2.397.455-.648.307-1.14.723-1.478 1.25a3.285 3.285 0 0 0-.5 1.795c0 .667.167 1.264.5 1.79.337.53.83.947 1.478 1.25.651.307 1.45.46 2.397.46ZM7 94.23 18.636 91v1.847l-9.01 2.267v.108l9.01 2.358v1.83l-9.017 2.357v.108l9.017 2.262v1.852L7 102.757v-1.767l8.716-2.449v-.09L7 96v-1.77Zm11.636 22.754H7v-1.614l8.534-5.914v-.108H7v-1.756h11.636v1.625l-8.545 5.92v.108h8.545v1.739Z"/>
</svg>
