<svg xmlns="http://www.w3.org/2000/svg" width="27" height="218" fill="none" viewBox="0 0 27 218">
  <path fill="#E2E5F1" d="M14.75 147a.75.75 0 0 0-1.5 0h1.5Zm-1.28 70.53a.75.75 0 0 0 1.06 0l4.773-4.773a.75.75 0 1 0-1.06-1.06L14 215.939l-4.243-4.242a.75.75 0 0 0-1.06 1.06l4.773 4.773ZM13.25 147v70h1.5v-70h-1.5Zm0-76a.75.75 0 0 0 1.5 0h-1.5ZM14.53.47a.75.75 0 0 0-1.06 0L8.697 5.243a.75.75 0 0 0 1.06 1.06L14 2.061l4.243 4.242a.75.75 0 0 0 1.06-1.06L14.53.47ZM14.75 71V1h-1.5v70h1.5Zm1.688 14.472a1.554 1.554 0 0 0 1.159-.67c.276-.391.414-.899.414-1.524 0-.439-.066-.816-.198-1.13-.133-.315-.313-.555-.54-.722a1.312 1.312 0 0 0-.779-.255c-.242 0-.452.054-.63.164-.178.114-.33.267-.455.46a3.243 3.243 0 0 0-.307.642 6.909 6.909 0 0 0-.21.71l-.273 1.092c-.102.439-.24.861-.415 1.267a4.43 4.43 0 0 1-.659 1.096 2.926 2.926 0 0 1-.96.773c-.375.19-.814.284-1.318.284-.682 0-1.282-.174-1.801-.523-.515-.348-.919-.852-1.21-1.511-.288-.655-.432-1.449-.432-2.38 0-.906.14-1.692.42-2.359.28-.662.69-1.181 1.228-1.556.537-.372 1.193-.572 1.966-.603v2.074c-.406.03-.743.155-1.012.375s-.47.506-.602.858a3.399 3.399 0 0 0-.199 1.193c0 .459.068.86.205 1.205.14.348.333.621.58.818a1.4 1.4 0 0 0 .874.301c.303-.004.553-.093.75-.267.2-.174.367-.419.5-.733.136-.31.258-.674.364-1.09l.34-1.325c.247-.958.62-1.715 1.12-2.272.504-.553 1.172-.83 2.006-.83.685 0 1.286.186 1.8.557.516.375.915.884 1.2 1.528.287.644.431 1.373.431 2.188 0 .826-.144 1.55-.431 2.17-.285.625-.68 1.116-1.188 1.472a3.032 3.032 0 0 1-1.738.551v-2.028Zm-.728 14.027v-2.125c.349-.061.657-.173.926-.336a2.49 2.49 0 0 0 1.12-1.437c.098-.307.147-.638.147-.995 0-.632-.159-1.193-.477-1.681-.314-.489-.776-.871-1.386-1.148-.606-.276-1.347-.415-2.222-.415-.89 0-1.64.139-2.25.415-.606.28-1.064.663-1.375 1.148-.307.488-.46 1.047-.46 1.676 0 .348.045.674.136.977.095.307.233.582.415.824a2.531 2.531 0 0 0 1.58.972l-.012 2.125a4.575 4.575 0 0 1-1.556-.517 4.587 4.587 0 0 1-1.285-1.029 4.742 4.742 0 0 1-.863-1.489 5.554 5.554 0 0 1-.307-1.892c0-1.022.237-1.935.71-2.738.474-.803 1.157-1.436 2.051-1.898.894-.462 1.966-.693 3.216-.693 1.254 0 2.326.233 3.216.699.894.466 1.578 1.1 2.051 1.903.474.803.71 1.712.71 2.727a5.79 5.79 0 0 1-.272 1.807 4.627 4.627 0 0 1-.801 1.489 4.264 4.264 0 0 1-1.285 1.074 4.77 4.77 0 0 1-1.727.557ZM8 101.429h11.636v4.364c0 .894-.155 1.644-.465 2.25-.311.609-.747 1.07-1.307 1.38-.557.315-1.207.472-1.95.472-.745 0-1.393-.159-1.942-.477-.546-.315-.968-.779-1.268-1.392-.295-.614-.443-1.368-.443-2.262v-3.108h1.75v2.824c0 .523.072.951.216 1.284.148.334.362.58.642.739.284.163.633.244 1.046.244.413 0 .765-.081 1.057-.244a1.56 1.56 0 0 0 .67-.744c.155-.334.233-.764.233-1.29v-1.932H8v-2.108Zm5.273 6.011L8 110.321v-2.352l5.273-2.83v2.301Zm.545 14.793c-1.254 0-2.327-.235-3.221-.705-.89-.466-1.572-1.102-2.046-1.909-.473-.803-.71-1.714-.71-2.733 0-1.019.237-1.931.71-2.738.477-.803 1.161-1.44 2.051-1.909.894-.466 1.966-.699 3.216-.699 1.254 0 2.326.233 3.216.699.894.469 1.578 1.106 2.051 1.909.474.807.71 1.719.71 2.738s-.236 1.93-.71 2.733c-.473.807-1.157 1.443-2.05 1.909-.891.47-1.963.705-3.217.705Zm0-2.119c.883 0 1.627-.139 2.233-.415.61-.273 1.07-.652 1.38-1.137.315-.484.472-1.043.472-1.676 0-.632-.157-1.191-.471-1.676-.31-.485-.771-.865-1.38-1.142-.607-.273-1.351-.409-2.234-.409-.882 0-1.629.136-2.239.409-.606.277-1.066.657-1.38 1.142-.31.485-.466 1.044-.466 1.676 0 .633.155 1.192.466 1.676.314.485.774.864 1.38 1.137.61.276 1.357.415 2.24.415ZM8 124.226h11.636v2.108H9.767v5.125H8v-7.233Zm0 9.062h11.636v2.108H9.767v5.125H8v-7.233Z"/>
</svg>
